<mxfile host="app.diagrams.net" agent="Mozilla/5.0 (X11; Ubuntu; Linux x86_64; rv:109.0) Gecko/20100101 Firefox/113.0" version="24.8.4">
  <diagram name="Page-1" id="vsjxUeqfJ8pEbrj_dsGz">
    <mxGraphModel dx="1385" dy="795" grid="1" gridSize="10" guides="1" tooltips="1" connect="1" arrows="1" fold="1" page="1" pageScale="1" pageWidth="850" pageHeight="1100" math="0" shadow="0">
      <root>
        <mxCell id="0" />
        <mxCell id="1" parent="0" />
        <mxCell id="sKAyROIe8MbbSi1Xfy_6-8" style="edgeStyle=orthogonalEdgeStyle;rounded=0;orthogonalLoop=1;jettySize=auto;html=1;" edge="1" parent="1" source="sKAyROIe8MbbSi1Xfy_6-1" target="sKAyROIe8MbbSi1Xfy_6-3">
          <mxGeometry relative="1" as="geometry" />
        </mxCell>
        <mxCell id="sKAyROIe8MbbSi1Xfy_6-1" value="AIREM DEVICE 9" style="points=[[0.13,0.02,0],[0.5,0,0],[0.87,0.02,0],[0.885,0.4,0],[0.985,0.985,0],[0.5,1,0],[0.015,0.985,0],[0.115,0.4,0]];verticalLabelPosition=bottom;sketch=0;html=1;verticalAlign=top;aspect=fixed;align=center;pointerEvents=1;shape=mxgraph.cisco19.laptop;fillColor=#005073;strokeColor=none;" vertex="1" parent="1">
          <mxGeometry x="60" y="130" width="80" height="56" as="geometry" />
        </mxCell>
        <mxCell id="sKAyROIe8MbbSi1Xfy_6-9" style="edgeStyle=orthogonalEdgeStyle;rounded=0;orthogonalLoop=1;jettySize=auto;html=1;entryX=0;entryY=0.75;entryDx=0;entryDy=0;" edge="1" parent="1" source="sKAyROIe8MbbSi1Xfy_6-2" target="sKAyROIe8MbbSi1Xfy_6-3">
          <mxGeometry relative="1" as="geometry" />
        </mxCell>
        <mxCell id="sKAyROIe8MbbSi1Xfy_6-2" value="&lt;div&gt;AIREM DEVICE 10&lt;/div&gt;&lt;div&gt;&lt;br&gt;&lt;/div&gt;" style="points=[[0.13,0.02,0],[0.5,0,0],[0.87,0.02,0],[0.885,0.4,0],[0.985,0.985,0],[0.5,1,0],[0.015,0.985,0],[0.115,0.4,0]];verticalLabelPosition=bottom;sketch=0;html=1;verticalAlign=top;aspect=fixed;align=center;pointerEvents=1;shape=mxgraph.cisco19.laptop;fillColor=#005073;strokeColor=none;" vertex="1" parent="1">
          <mxGeometry x="60" y="240" width="80" height="56" as="geometry" />
        </mxCell>
        <mxCell id="sKAyROIe8MbbSi1Xfy_6-11" style="edgeStyle=orthogonalEdgeStyle;rounded=0;orthogonalLoop=1;jettySize=auto;html=1;" edge="1" parent="1" source="sKAyROIe8MbbSi1Xfy_6-3" target="sKAyROIe8MbbSi1Xfy_6-4">
          <mxGeometry relative="1" as="geometry" />
        </mxCell>
        <mxCell id="sKAyROIe8MbbSi1Xfy_6-3" value="INTERNET" style="image;aspect=fixed;perimeter=ellipsePerimeter;html=1;align=center;shadow=0;dashed=0;spacingTop=3;image=img/lib/active_directory/internet_cloud.svg;" vertex="1" parent="1">
          <mxGeometry x="230" y="160" width="120" height="75.6" as="geometry" />
        </mxCell>
        <mxCell id="sKAyROIe8MbbSi1Xfy_6-12" style="edgeStyle=orthogonalEdgeStyle;rounded=0;orthogonalLoop=1;jettySize=auto;html=1;" edge="1" parent="1" source="sKAyROIe8MbbSi1Xfy_6-4" target="sKAyROIe8MbbSi1Xfy_6-5">
          <mxGeometry relative="1" as="geometry" />
        </mxCell>
        <mxCell id="sKAyROIe8MbbSi1Xfy_6-4" value="Amazon IoT Core" style="sketch=0;outlineConnect=0;fontColor=#232F3E;gradientColor=none;strokeColor=#ffffff;fillColor=#232F3E;dashed=0;verticalLabelPosition=middle;verticalAlign=bottom;align=center;html=1;whiteSpace=wrap;fontSize=10;fontStyle=1;spacing=3;shape=mxgraph.aws4.productIcon;prIcon=mxgraph.aws4.iot_core;" vertex="1" parent="1">
          <mxGeometry x="425" y="130" width="140" height="154" as="geometry" />
        </mxCell>
        <mxCell id="sKAyROIe8MbbSi1Xfy_6-13" style="edgeStyle=orthogonalEdgeStyle;rounded=0;orthogonalLoop=1;jettySize=auto;html=1;" edge="1" parent="1" source="sKAyROIe8MbbSi1Xfy_6-5" target="sKAyROIe8MbbSi1Xfy_6-6">
          <mxGeometry relative="1" as="geometry">
            <mxPoint x="750" y="400" as="targetPoint" />
            <Array as="points">
              <mxPoint x="770" y="374" />
            </Array>
          </mxGeometry>
        </mxCell>
        <mxCell id="sKAyROIe8MbbSi1Xfy_6-5" value="&lt;div&gt;Amazon DynamoDB(AI_TRANSACTION)&lt;/div&gt;" style="sketch=0;outlineConnect=0;fontColor=#232F3E;gradientColor=none;strokeColor=#ffffff;fillColor=#232F3E;dashed=0;verticalLabelPosition=middle;verticalAlign=bottom;align=center;html=1;whiteSpace=wrap;fontSize=10;fontStyle=1;spacing=3;shape=mxgraph.aws4.productIcon;prIcon=mxgraph.aws4.dynamodb;" vertex="1" parent="1">
          <mxGeometry x="670" y="110" width="180" height="210" as="geometry" />
        </mxCell>
        <mxCell id="sKAyROIe8MbbSi1Xfy_6-14" style="edgeStyle=orthogonalEdgeStyle;rounded=0;orthogonalLoop=1;jettySize=auto;html=1;entryX=1;entryY=1;entryDx=0;entryDy=0;" edge="1" parent="1" source="sKAyROIe8MbbSi1Xfy_6-6" target="sKAyROIe8MbbSi1Xfy_6-3">
          <mxGeometry relative="1" as="geometry" />
        </mxCell>
        <mxCell id="sKAyROIe8MbbSi1Xfy_6-6" value="&lt;div&gt;API WEBSOCKET&lt;/div&gt;&lt;div&gt;&lt;br&gt;&lt;/div&gt;&lt;div&gt;* AWS_CREDIENTIALS&lt;/div&gt;&lt;div&gt;* WS_BROADCAST&lt;/div&gt;&lt;div&gt;* WS_CONNECT&lt;/div&gt;&lt;div&gt;* WS_DISCONNECT&lt;br&gt;&lt;/div&gt;" style="sketch=0;points=[[0,0,0],[0.25,0,0],[0.5,0,0],[0.75,0,0],[1,0,0],[0,1,0],[0.25,1,0],[0.5,1,0],[0.75,1,0],[1,1,0],[0,0.25,0],[0,0.5,0],[0,0.75,0],[1,0.25,0],[1,0.5,0],[1,0.75,0]];outlineConnect=0;fontColor=#232F3E;fillColor=#8C4FFF;strokeColor=#ffffff;dashed=0;verticalLabelPosition=bottom;verticalAlign=top;align=center;html=1;fontSize=12;fontStyle=0;aspect=fixed;shape=mxgraph.aws4.resourceIcon;resIcon=mxgraph.aws4.api_gateway;" vertex="1" parent="1">
          <mxGeometry x="490" y="310" width="128" height="128" as="geometry" />
        </mxCell>
        <mxCell id="sKAyROIe8MbbSi1Xfy_6-15" style="edgeStyle=orthogonalEdgeStyle;rounded=0;orthogonalLoop=1;jettySize=auto;html=1;" edge="1" parent="1" source="sKAyROIe8MbbSi1Xfy_6-7">
          <mxGeometry relative="1" as="geometry">
            <mxPoint x="289" y="270" as="targetPoint" />
          </mxGeometry>
        </mxCell>
        <mxCell id="sKAyROIe8MbbSi1Xfy_6-7" value="CUSTOMER APP" style="image;aspect=fixed;html=1;points=[];align=center;fontSize=12;image=img/lib/azure2/intune/Device_Compliance.svg;" vertex="1" parent="1">
          <mxGeometry x="228" y="410" width="122" height="133.81" as="geometry" />
        </mxCell>
        <mxCell id="sKAyROIe8MbbSi1Xfy_6-16" value="" style="rounded=0;whiteSpace=wrap;html=1;fillColor=none;strokeColor=#FF3333;" vertex="1" parent="1">
          <mxGeometry x="30" y="90" width="140" height="270" as="geometry" />
        </mxCell>
        <mxCell id="sKAyROIe8MbbSi1Xfy_6-17" value="Device Simulator" style="text;html=1;align=center;verticalAlign=middle;whiteSpace=wrap;rounded=0;" vertex="1" parent="1">
          <mxGeometry x="70" y="60" width="60" height="30" as="geometry" />
        </mxCell>
      </root>
    </mxGraphModel>
  </diagram>
</mxfile>
